<?xml version="1.0" encoding="utf-8"?>
<!-- Generator: Adobe Illustrator 25.0.1, SVG Export Plug-In . SVG Version: 6.00 Build 0)  -->
<svg version="1.1" id="Layer_1" xmlns="http://www.w3.org/2000/svg" xmlns:xlink="http://www.w3.org/1999/xlink" x="0px" y="0px"
	 viewBox="0 0 741.3 51.5" style="enable-background:new 0 0 741.3 51.5;" xml:space="preserve">
<style type="text/css">
	.st0{fill:#4F5A5D;}
	.st1{fill:#2574BA;}
	.st2{fill:#006786;}
	.st3{fill:#716E6F;}
</style>
<g>
	<polygon class="st0" points="342.6,9.4 342.6,17.2 325.9,17.2 325.9,26.2 339.8,26.2 339.8,33.6 325.9,33.6 325.9,50.1 316,50.1 
		316,9.4 	"/>
	<rect x="348.2" y="9.4" class="st0" width="9.9" height="40.7"/>
	<polygon class="st0" points="401.6,50.1 391.8,50.1 375.3,25.1 375.3,50.1 365.4,50.1 365.4,9.4 375.3,9.4 391.8,34.6 391.8,9.4 
		401.6,9.4 	"/>
	<path class="st0" d="M431.7,35.1L426.6,20l-5.1,15.1H431.7z M434.3,42.6H419l-2.5,7.5h-10.4L421,9.4h11.4l14.9,40.7h-10.5
		L434.3,42.6z"/>
	<polygon class="st0" points="515.4,29.3 531.9,50.1 519.9,50.1 506.1,31.9 506.1,50.1 496.3,50.1 496.3,9.4 506.1,9.4 506.1,27.3 
		520.1,9.4 531.9,9.4 	"/>
	<rect x="536" y="9.4" class="st0" width="9.9" height="40.7"/>
	<polygon class="st0" points="581.9,9.4 581.9,17.2 570.9,17.2 570.9,50.1 561,50.1 561,17.2 550,17.2 550,9.4 	"/>
	<g>
		<path class="st0" d="M617.6,13.1c3.4,2.7,5.6,6.4,6.6,11.1h-10.4c-0.8-1.9-1.9-3.4-3.5-4.4c-1.6-1.1-3.5-1.6-5.7-1.6
			c-2.9,0-5.2,1.1-7,3.2s-2.6,4.9-2.6,8.5s0.9,6.3,2.6,8.4c1.8,2.1,4.1,3.1,7,3.1c2.2,0,4.1-0.5,5.7-1.6c1.6-1.1,2.8-2.5,3.5-4.4
			h10.4c-1,4.6-3.2,8.3-6.6,11c-3.4,2.7-7.7,4.1-12.9,4.1c-4,0-7.4-0.9-10.4-2.6c-3-1.7-5.3-4.2-6.9-7.3c-1.6-3.1-2.4-6.7-2.4-10.8
			c0-4,0.8-7.6,2.4-10.8c1.6-3.1,3.9-5.6,6.9-7.3s6.5-2.6,10.4-2.6C609.9,9,614.2,10.4,617.6,13.1"/>
	</g>
	<polygon class="st0" points="664.9,9.4 664.9,50.1 655,50.1 655,33.1 639.5,33.1 639.5,50.1 629.7,50.1 629.7,9.4 639.5,9.4 
		639.5,25.2 655,25.2 655,9.4 	"/>
	<polygon class="st0" points="740,50.1 730.2,50.1 713.7,25.1 713.7,50.1 703.8,50.1 703.8,9.4 713.7,9.4 730.2,34.6 730.2,9.4 
		740,9.4 	"/>
	<rect x="669.7" y="25.2" class="st1" width="29.1" height="8"/>
	<rect x="669.7" y="42.2" class="st1" width="29.1" height="8"/>
	<rect x="669.7" y="9.4" class="st1" width="29.1" height="8"/>
	<rect x="669.7" y="9.7" class="st1" width="29.1" height="8"/>
	<rect x="449.7" y="42.2" class="st1" width="29.1" height="8"/>
	<rect x="449.7" y="9.4" class="st1" width="9.5" height="28.8"/>
</g>
<g>
	<path class="st2" d="M77.3,1h-0.6c-20.8-0.2-37.4,9.6-50.3,20.4c-3.1-3-7.7-8.1-10.3-13.5H5.7c2,3.8,6.6,11,14.5,18.9
		C13.8,32.7,5.6,41.9,1,49h15.5c0,0,0,0,0,0c3.4-6.6,6.9-11.4,10.9-15.7c11,8.6,26.3,16.2,50.4,17.2V28.4h-8.4v13.2
		C54.6,40.4,43.2,34.9,33,27.2C44.3,16,60.9,4.9,76.6,5.4c8.1,0.1,12.3,3.9,12.4,7.8c0.3,3.4-1.9,8.2-9.6,8.2h-0.3
		c-4.3,0-7.9-1.3-7.9-5.1v-0.4c0-1,0.9-3.6,4.3-3.6h0.6c1.8,0,2.7,0.5,2.7,1.3v0.1c0,0.4,0,0.9-1.1,1.1c-1,0.2-1.6,0.5-2,1
		c-0.2,0.3-0.3,0.9-0.1,1.3c0.5,1,1.6,1.4,3.2,1.4c1.8,0,7.1-0.5,7.1-4.6v-0.2C85.8,8.9,78.9,8,76,8h-0.4c-10.8,0-11.9,6.5-11.9,8.1
		v0.4c0,6,7.8,9.3,15.2,9.2h1.3c11.3,0.1,16.5-5.5,16.5-11.1l0-0.7C96.6,6.1,87.6,1,77.3,1"/>
	<rect x="83.8" y="28.4" class="st2" width="8.4" height="22.1"/>
	<path class="st3" d="M142.2,32.1h-5.6v18.4h-4.8V14.7h4.8v13.3h5.6V32.1z M122.8,30.5c2.2,3.4,4.8,6.1,8.2,8.6l-3.4,3.2
		c-3-2.4-5.2-4.8-7.3-7.7c-2.5,3.4-5.6,6.3-9.2,8.8l-3.5-3.1c7.8-4.7,12.8-12.7,13.2-18.4c-2.4,0.2-4.9,0.2-7.1,0.2h-3.9v-4.2h6
		c3.3,0,6.7,0,10.3-0.1C126.2,22.1,125,26.5,122.8,30.5"/>
	<path class="st3" d="M170.6,14.7h4.8v35.8h-4.8V14.7z M160.8,29.7c0-5.5-1.7-8.9-4.5-8.9c-2.9,0-4.5,3.4-4.5,8.9
		c0,5.5,1.7,8.9,4.5,8.9C159.1,38.6,160.8,35.2,160.8,29.7 M165.6,29.7c0,8.3-3.7,13-9.4,13c-5.6,0-9.4-4.6-9.4-13
		c0-8.3,3.7-13,9.4-13C161.9,16.7,165.6,21.4,165.6,29.7"/>
	<path class="st3" d="M209.1,23.4c-2.4-2.1-5.3-3.5-8.7-3.5c-3.8,0-5.7,1.2-5.7,3.8c0,2.5,1.8,3.8,4.8,4.9l3.2,1.3
		c5.6,2.3,8.8,5.3,8.8,9.7c0,6.7-5.2,9.8-12.8,9.8c-4,0-7.6-0.9-10.3-3.1v-5.6c0-0.3,0.4-0.5,0.6-0.3c2.6,2.8,5.3,4.4,9.7,4.4
		c4.5,0,6.5-1.5,6.5-4.8c0-2.5-1.9-4.1-5.4-5.5l-3.2-1.3c-4.6-1.9-7.9-4.3-7.9-9.3c0-5.6,4.7-8.5,11.6-8.5c3,0,6.8,0.6,9.5,2.7v5
		C209.7,23.4,209.3,23.6,209.1,23.4"/>
	<path class="st3" d="M249,20.3h-3.5v24.3h3.4c7.4,0,11.9-4,11.9-12.2C260.8,24.2,256.8,20.3,249,20.3 M248.3,49h-8.2V15.8h8.2
		c12.1,0,18.2,5.3,18.2,16.5C266.5,44,258.2,49.1,248.3,49"/>
	<path class="st3" d="M222.6,32.6c1.5-1.2,2.5-2.2,2.5-4c0-1.2-0.6-1.8-2.1-1.8c-1.1,0-1.9,0.7-1.9,2.1
		C221,30.3,221.5,31.5,222.6,32.6L222.6,32.6z M222.1,36.8c-2.1,1.8-3.4,3.1-3.4,5.4c0,2.2,1.8,3.9,4.2,3.9c2.1,0,4-1,5.1-2.6v-0.1
		L222.1,36.8L222.1,36.8z M224.8,35l4.9,5.6h0.1c0.5-1.6,0.4-3.6-0.3-5.1c-0.1-0.3-0.1-0.4,0.2-0.4h3.6c0.5,3.4,0.1,6.1-0.9,8.3
		l5,5.3h-5.1l-2-2.5h-0.1c-1.5,1.8-4.1,3.1-7,3.1c-2.5,0-4.3-0.5-6-1.6c-1.6-1.2-2.6-2.8-2.6-5.2c0-2.8,1.9-5.2,5.3-7.9v-0.1
		c-1.2-1.4-2.6-3.1-2.6-5.3c0-3.1,2-5.2,5.5-5.2c3.8,0,5.9,1.9,5.9,4.6C228.8,31.5,226.6,33.5,224.8,35L224.8,35z"/>
</g>
</svg>
