<?xml version="1.0" encoding="utf-8"?>
<!-- Generator: Adobe Illustrator 25.0.1, SVG Export Plug-In . SVG Version: 6.00 Build 0)  -->
<svg version="1.1" id="Layer_1" xmlns="http://www.w3.org/2000/svg" xmlns:xlink="http://www.w3.org/1999/xlink" x="0px" y="0px"
	 viewBox="0 0 425.2 41.7" style="enable-background:new 0 0 425.2 41.7;" xml:space="preserve">
<style type="text/css">
	.st0{fill:#4F5A5D;}
	.st1{fill:#2574BA;}
</style>
<g>
	<polygon class="st0" points="27.2,0.5 27.2,8.3 10.5,8.3 10.5,17.3 24.4,17.3 24.4,24.7 10.5,24.7 10.5,41.2 0.6,41.2 0.6,0.5 	"/>
	<rect x="32.8" y="0.5" class="st0" width="9.9" height="40.7"/>
	<polygon class="st0" points="86.2,41.2 76.4,41.2 59.9,16.2 59.9,41.2 50,41.2 50,0.5 59.9,0.5 76.4,25.7 76.4,0.5 86.2,0.5 	"/>
	<path class="st0" d="M116.3,26.2l-5.1-15.1l-5.1,15.1H116.3z M118.9,33.7h-15.3l-2.5,7.5H90.7l14.9-40.7H117l14.9,40.7h-10.5
		L118.9,33.7z"/>
	<polygon class="st0" points="200,20.4 216.5,41.2 204.5,41.2 190.7,23 190.7,41.2 180.9,41.2 180.9,0.5 190.7,0.5 190.7,18.4 
		204.7,0.5 216.5,0.5 	"/>
	<rect x="220.6" y="0.5" class="st0" width="9.9" height="40.7"/>
	<polygon class="st0" points="266.5,0.5 266.5,8.3 255.5,8.3 255.5,41.2 245.6,41.2 245.6,8.3 234.6,8.3 234.6,0.5 	"/>
	<g>
		<path class="st0" d="M302.2,4.2c3.4,2.7,5.6,6.4,6.6,11.1h-10.4c-0.8-1.9-1.9-3.4-3.5-4.4c-1.6-1.1-3.5-1.6-5.7-1.6
			c-2.9,0-5.2,1.1-7,3.2c-1.8,2.1-2.6,4.9-2.6,8.5s0.9,6.3,2.6,8.4c1.8,2.1,4.1,3.1,7,3.1c2.2,0,4.1-0.5,5.7-1.6
			c1.6-1.1,2.8-2.5,3.5-4.4h10.4c-1,4.6-3.2,8.3-6.6,11c-3.4,2.7-7.7,4.1-12.9,4.1c-4,0-7.4-0.9-10.4-2.6c-3-1.7-5.3-4.2-6.9-7.3
			c-1.6-3.1-2.4-6.7-2.4-10.8c0-4,0.8-7.6,2.4-10.8c1.6-3.1,3.9-5.6,6.9-7.3c3-1.7,6.5-2.6,10.4-2.6C294.5,0.1,298.8,1.5,302.2,4.2"
			/>
	</g>
	<polygon class="st0" points="349.5,0.5 349.5,41.2 339.6,41.2 339.6,24.2 324.1,24.2 324.1,41.2 314.3,41.2 314.3,0.5 324.1,0.5 
		324.1,16.3 339.6,16.3 339.6,0.5 	"/>
	<polygon class="st0" points="424.6,41.2 414.8,41.2 398.3,16.2 398.3,41.2 388.4,41.2 388.4,0.5 398.3,0.5 414.8,25.7 414.8,0.5 
		424.6,0.5 	"/>
	<rect x="354.3" y="16.3" class="st1" width="29.1" height="8"/>
	<rect x="354.3" y="33.3" class="st1" width="29.1" height="8"/>
	<rect x="354.3" y="0.5" class="st1" width="29.1" height="8"/>
	<rect x="354.3" y="0.8" class="st1" width="29.1" height="8"/>
	<rect x="134.3" y="33.3" class="st1" width="29.1" height="8"/>
	<rect x="134.3" y="0.5" class="st1" width="9.5" height="28.8"/>
</g>
</svg>
