<?xml version="1.0" encoding="utf-8"?>
<!-- Generator: Adobe Illustrator 25.0.1, SVG Export Plug-In . SVG Version: 6.00 Build 0)  -->
<svg version="1.1" id="Layer_1" xmlns="http://www.w3.org/2000/svg" xmlns:xlink="http://www.w3.org/1999/xlink" x="0px" y="0px"
	 viewBox="0 0 142.2 117.7" style="enable-background:new 0 0 142.2 117.7;" xml:space="preserve">
<style type="text/css">
	.st0{fill:#0074C8;}
</style>
<g>
	<path class="st0" d="M48.7,68.2v-2.5c-0.8,1.2-1.8,2-2.9,2.3c-1.1,0.3-1.9,0.8-2.6,1.5c0-0.3-0.1-0.4-0.4-0.3
		c-0.3,0.1-0.6,0.3-1,0.5c-0.4,0.2-0.9,0.5-1.3,0.8c-0.5,0.3-0.9,0.4-1.3,0.4h-0.3c0,0.7-0.5,1.1-1.4,1.3c-0.4,0.1-0.8,0.1-1.4,0.1
		c-1.4,1.5-2.8,2.4-4.2,2.7c-1.4,0.3-2.9,0.9-4.2,1.6l1.4,1.4c-1,0.7-2.1,1.3-3.3,1.5c-1.2,0.3-2.3,0.6-3.3,0.9
		c-1,0.3-1.9,0.8-2.8,1.5c-0.8,0.7-1.4,1.7-1.8,3.1l-1.4-1.4c0,1-0.2,1.6-0.6,1.8c-0.4,0.2-0.9,0.2-1.3,0.1
		c-0.5-0.1-0.8-0.1-1.1-0.1c-0.3,0-0.2,0.3,0.1,1c-0.6,0.6-1.2,0.7-2,0.6c-0.4-0.1-0.7-0.3-0.8-0.6c-0.7,0-1.4,0-2-0.1
		c-0.6-0.1-0.8-0.5-0.8-1.3H6.3c0-0.4-0.1-0.6-0.4-0.8c-0.3-0.2-0.6-0.4-1-0.7c-0.4-0.3-0.7-0.6-1-1c-0.3-0.4-0.4-1-0.4-1.7
		c0-0.6,0.3-1.2,0.9-1.6c0.6-0.4,1.3-0.8,2.1-1.2c0.8-0.4,1.6-0.7,2.4-1.1c0.8-0.4,1.4-0.9,1.7-1.7H12l1.4-10l1.4-1.4
		c-0.7-0.7-0.9-1.7-0.6-2.9c0.4-1.2,0.6-2.1,0.6-2.9c1.1,0,1.7-0.3,1.9-1c0.1-0.7,0.2-1.4,0.1-2.2c-0.1-0.8-0.1-1.5-0.1-2
		c0-0.6,0.4-0.6,1.1-0.3h1.4c0-0.7,0.3-0.9,0.8-0.6c0.6,0.4,1.2,0.6,1.9,0.6c0-0.6,0.2-1.1,0.7-1.3c0.2-0.1,0.4-0.1,0.7-0.1
		l-1.4-2.9l-1.4,2.9h-1.4c-0.4-0.4-0.6-0.6-0.6-0.6c0,0,0.1-0.1,0.2-0.1c0.1,0,0.4,0,0.7-0.1c0.3-0.1,0.7-0.3,1-0.7l-2.8-1.4
		c0-0.6,0.2-1,0.6-1.2c0.4-0.1,0.9-0.3,1.5-0.3c0.6-0.1,1-0.3,1.5-0.6c0.4-0.3,0.6-1,0.6-2h-1.4v1.4h-1.4l1.4-1.4h-1.4
		c0-0.6,0-1,0.1-1.4c0.1-0.4,0.2-0.7,0.4-1c0.2-0.3,0.5-0.5,0.8-0.5v1.5c0.7-0.7,0.9-1.2,0.6-1.5c-0.4-0.2-0.6-0.7-0.6-1.5
		c-0.7,0-1.2,0.2-1.4,0.7C19,40.8,18.5,41,17.8,41v-1.4h-1.4c0.4-0.6,0.3-1.2-0.1-1.6c-0.4-0.4-0.9-0.8-1.4-1.2
		c-0.5-0.4-1-0.8-1.4-1.2c-0.4-0.4-0.4-1-0.1-1.7c-0.7-0.7-1.2-1.7-1.3-2.8c-0.1-1.1-0.1-2-0.1-2.8c-0.7-0.4-1.2-0.8-1.3-1.3
		c-0.1-0.5-0.1-1,0-1.5c0.1-0.5,0.2-1,0.3-1.5c0.1-0.5,0-1-0.4-1.3H12c-0.4-0.6-0.5-1.3-0.4-2c0.1-0.6,0.3-1.3,0.5-1.9
		c0.2-0.6,0.5-1.2,0.8-1.9c0.3-0.6,0.5-1.3,0.6-1.9c0.1-0.8,0.4-1.4,0.8-1.6c0.5-0.2,1-0.4,1.6-0.5c0.6-0.1,1.2-0.2,1.8-0.3
		c0.6-0.1,1.1-0.5,1.5-1.2c0.4,0,0.6,0.2,0.8,0.6c0.2,0.4,0.4,0.8,0.7,1.3c0.3,0.4,0.6,0.8,1,1c0.4,0.3,0.9,0.2,1.7-0.1l-1.4,4.3
		c-0.7,0-0.9-0.1-0.6-0.2c0.4-0.1,0.6-0.6,0.6-1.3c-1,1.1-1.8,2.3-2.4,3.5c-0.6,1.2-1.1,2.4-1.4,3.6c-0.3,1.2-0.6,2.3-0.8,3.3
		c-0.2,1-0.5,1.9-0.9,2.5c0,0.7,0.2,1.1,0.7,1.3c0.2,0.1,0.4,0.1,0.7,0.1v1.4h-1.4l4.2,2.9c0.6-0.6,1-1.2,1.3-2
		c0.3-0.8,0.8-1.4,1.5-1.9v1h1.5v-1.4c-0.4-1.4-0.4-2.9-0.2-4.5c0.2-1.6,0.5-3.2,0.8-4.9c0.3-1.7,0.6-3.4,0.9-5.2
		c0.3-1.8,0.2-3.5-0.1-5.3h-1.4c0.3-0.3,0.4-0.6,0.3-1.1c0-0.5-0.1-0.9-0.2-1.4c-0.1-0.5-0.1-1-0.1-1.5c0-0.5,0.3-1,0.8-1.3l0.6,1
		l1.4-1.4C28.3,6,28.8,6.5,29,7.2c0.3,0.7,0.5,1.3,0.6,2c0.1,0.7,0.2,1.4,0.2,2c0,0.7,0.3,1.2,0.6,1.5c0,1.4-0.1,2.7-0.3,4
		c-0.2,1.3,0.3,2.3,1.7,3.1c-0.7,0.7-1.2,1.4-1.3,2.1c-0.1,0.7-0.1,1.3,0,1.9c0.1,0.7,0.2,1.2,0.3,1.7c0.1,0.5,0,1-0.4,1.3l1.4,1.4
		c-0.5,0.8-0.8,1.2-1,1c-0.2-0.1-0.3-0.4-0.3-0.8c0,0.7,0,1.6,0.1,2.6c0.1,1,0.1,1.9,0,2.9c-0.1,0.9-0.3,1.8-0.8,2.6
		c-0.4,0.8-1.1,1.3-2.2,1.6L23.3,41l4.3,4.3c-0.7,0-1.8,0-3.1,0.1c-1.3,0.1-2.6,0.5-4,1.3c0.5,0.2,0.9,0.4,1.3,0.6
		c0.8,0.3,1.3,0.3,1.5,0v0.8c0.4,0.4,0.7,0.5,0.9,0.4c0.2-0.1,0.4-0.3,0.6-0.6c0.2-0.3,0.4-0.6,0.6-0.8c0.2-0.3,0.5-0.4,0.8-0.4
		c-0.4,0.4-0.5,0.7-0.4,0.8c0.1,0.2,0.2,0.4,0.4,0.6c0.2,0.2,0.3,0.4,0.4,0.6c0.1,0.2,0,0.5-0.4,0.8c-0.7,0.7-1.4,1-2,0.8
		c-0.6-0.2-0.9,0-0.9,0.8c0,0.2,0,0.4,0.1,0.6c0.2,0.5,0.5,0.7,1,0.8h-1.1v1.4c0,0.4-0.1,0.7-0.4,1c-0.3,0.3-0.5,0.7-0.6,1
		c-0.1,0.4-0.2,0.7-0.1,1c0,0.3,0.4,0.7,1.2,1c-0.4,0.4-0.6,0.9-0.6,1.5c0,0.7-0.1,1.3-0.1,1.9c0,0.6,0,1.1-0.1,1.6
		c0,0.5-0.3,0.7-0.6,0.7c-0.4,0.7-0.5,1.2-0.4,1.5c0.1,0.2,0.2,0.4,0.4,0.5c0.2,0.1,0.3,0.2,0.4,0.2c0.1,0,0,0.3-0.4,0.6
		c-0.7,0-1.1,0.2-1.3,0.6c-0.2,0.4-0.6,0.4-1.2,0l1.1,1h-1.4v1.4c0.7,0.7,1.6,0.9,2.6,0.4c1-0.5,1.5-1.1,1.5-1.8
		c0.7,0,1.3-0.1,1.7-0.2c0.4-0.1,0.8-0.3,1-0.6c0.3-0.2,0.5-0.4,0.7-0.6c0.2-0.1,0.5-0.2,0.8-0.2c0-0.9,0.5-1.4,1.4-1.4l1.4,1.4
		c0.6,0,1.1-0.5,1.4-1.5c0.3-1,0.8-1.9,1.5-2.6l1.4,1.4v-1.4h1.4c0.4,0,0.6-0.2,0.6-0.6c0-0.4,0.1-0.8,0.2-1.2
		c0.1-0.4,0.3-0.6,0.5-0.6c0.2,0,0.7,0.3,1.5,1c0.4,0,0.7-0.1,0.9-0.4c0.2-0.3,0.4-0.6,0.6-0.8c0.2-0.3,0.4-0.5,0.6-0.6
		c0.2-0.1,0.5,0,0.8,0.4c0.6-0.4,1.1-0.8,1.4-1.3c0.3-0.5,0.5-1,0.7-1.4c0.2-0.4,0.4-0.8,0.6-1.1c0.2-0.3,0.7-0.5,1.5-0.5l-1.4,4.3
		c0.6-0.7,1.3-1.4,2-1.9c0.7-0.5,1.6-0.9,2.9-1v-0.6c-0.2,0-0.4,0-0.8,0c-0.3,0-0.7-0.1-1-0.4c0.5,0.2,0.8,0,1-0.6
		c0.2-0.6,0.6-1,1.2-1.3c0.5-2.4,0.9-4.9,1.3-7.5c0.4-2.6,0.6-5.2,0.6-7.9c0.7-0.7,0.9-1.5,0.6-2.4c-0.4-0.8-0.6-1.6-0.6-2.4
		c0.4-1.6,0.6-3.1,0.6-4.5c0-1.4,0.1-2.7,0.1-4c0-1.3,0-2.5,0.1-3.6c0-1.2,0.3-2.3,0.6-3.6c1.8,0.4,2.9,1.3,3.5,2.7
		c0.6,1.4,0.8,3.1,0.8,4.9c0,1.9-0.1,3.8-0.3,5.8c-0.2,2-0.1,3.8,0.3,5.4c-0.7,0-1.2,0.3-1.3,1c-0.1,0.7-0.1,1.4-0.1,2.2
		c0.4,0.4,0.6,1.1,0.8,2.2c0.1,1.1,0.2,2.2,0.2,3.5c0,1.3-0.1,2.5-0.2,3.8c-0.1,1.3-0.4,2.4-0.8,3.2v1.5c1.1,0.4,1.8,0.3,2.2-0.1
		c0.3-0.4,0.6-0.9,0.7-1.5c0.1-0.6,0.3-1.1,0.6-1.5c0.2-0.5,0.8-0.6,1.6-0.4c0.7-0.4,1.6-1,2.6-1.8c1-0.8,1.8-1.3,2.6-1.3
		c0,0.8,0.5,1.3,1.4,1.3c0.9,0,1.4-0.4,1.4-1.3l1.5-1.5l1.4,1.5c0-0.7,0.1-1.2,0.2-1.3c0.1-0.1,0.6-0.2,1.3-0.2
		c0.4,0.8,0.7,1.2,0.9,1.2c0.2,0,0.4-0.2,0.6-0.6c0.2-0.3,0.4-0.6,0.6-0.8c0.2-0.2,0.5-0.2,0.9,0.2c0-1.4,0.2-2.3,0.7-2.8
		c0.2-0.3,0.4-0.4,0.7-0.4c0.7,0,1.3-0.1,1.7-0.2c0.4-0.1,0.8-0.3,1-0.3c0.3-0.1,0.5-0.1,0.8-0.1c0.2,0,0.5,0.3,0.9,0.6
		c0.4-0.4,0.6-0.9,0.6-1.6c0-0.7,0.1-1.5,0.1-2.4c0-0.9,0-1.8,0.1-2.7c0-0.9,0.3-1.8,0.6-2.6L85.2,15v-1.5c0.4,1.6,1.1,2.6,2.2,3.2
		c1.1,0.6,2.1,1.1,3,1.6c0.9,0.5,1.6,1.2,1.9,2c0.3,0.8-0.1,2.2-1.2,4.1h1.4c0,2.3-0.1,4.5-0.4,6.5c-0.3,2-0.6,3.9-0.8,5.6
		c-0.3,1.8-0.5,3.5-0.6,5.1c-0.1,1.6,0,3.2,0.4,4.7c-0.7,1.6-1.3,2.9-1.8,3.8c-0.5,1-0.3,1.9,0.4,2.7c-0.5,0.6-0.8,1.1-1.1,1.7
		c-0.2,0.5-0.2,1-0.1,1.5c0.1,0.5,0.5,1,1.3,1.3c0,0.4-0.1,0.9-0.4,1.7c-0.3,0.7-0.6,1.5-0.8,2.3c-0.3,0.8-0.5,1.6-0.6,2.3
		c-0.1,0.7-0.1,1.3,0.2,1.7c-0.4-0.4-0.6-0.4-0.6-0.1c0,0.3-0.1,0.8-0.1,1.3c0,0.6,0,1.2-0.1,1.8c0,0.7-0.3,1.2-0.6,1.5
		c-0.4,0.8-0.6,1.8-0.6,2.9c0,1.1-0.1,2.2-0.2,3.3c-0.1,1.1-0.3,2.1-0.6,3c-0.3,0.9-0.7,1.5-1.4,1.9c0.6,0.4,1,0.8,1,1.2
		s-0.1,0.8-0.4,1.2c-0.3,0.4-0.5,0.8-0.8,1.2c-0.2,0.4-0.2,0.8,0.2,1.2L81,83.9V65.1c0.7-2.3,1.2-4.7,1.3-7c0.1-2.4,0.1-4.7,0.1-7
		v-1.7l-2.9,1.7h-1.5L60.4,63.6c-0.7,0.7-1.7,1.8-2.9,3.3c-1.2,1.4-2.2,2.9-2.9,4.5c0.7,0,1,0.3,0.8,1c-0.2,0.7,0,1.3,0.8,2.1h-1.5
		v1.7c0.7-0.4,1.2-0.4,1.3-0.2c0.1,0.2,0.1,0.6,0,1.1c-0.1,0.5-0.2,1-0.2,1.5c0,0.5,0.1,0.7,0.5,0.7l-1.5,1.5v1.5h-4.5
		c-0.7-2.3-1.2-4.6-1.3-7C48.7,73,48.7,70.6,48.7,68.2z"/>
	<path class="st0" d="M104.7,34.6c-0.6-0.3-0.8-0.5-0.8-0.6c0-0.1,0.1-0.3,0.2-0.4c0.1-0.1,0.2-0.3,0.3-0.5c0-0.2-0.2-0.4-0.8-0.7
		l1.1-1.1c-0.3-0.3-0.4-0.6-0.3-0.8c0-0.3,0.1-0.6,0.3-0.8c0.1-0.3,0.3-0.6,0.3-0.8c0.1-0.3,0-0.6-0.3-0.8c0.6-0.6,1-1.2,1.2-2
		c0.2-0.8,0.4-1.6,0.6-2.3c0.2-0.7,0.5-1.4,0.8-2.1c0.4-0.6,1-1.1,1.8-1.4c0.3-0.8,0.7-1.5,1.3-1.9c0.6-0.5,1.3-0.9,1.9-1.3
		c0.7-0.4,1.4-0.7,2-1c0.6-0.3,1.1-0.8,1.4-1.3c0.6-0.6,1.2-0.8,1.8-0.8c0.6,0,1.3,0,2,0c0.7,0,1.4-0.1,2.1-0.4
		c0.7-0.3,1.3-1,1.9-2.1c0.6,0,1.2-0.2,1.8-0.6c0.6-0.4,1.5-0.6,2.6-0.6c0-0.6,0.2-0.7,0.7-0.4c0.5,0.3,1,0.4,1.5,0.4
		c0.6-0.6,1.3-0.6,2.2-0.3c0.9,0.4,1.7,0.8,2.2,1.4c0.5,0.2,0.9,0.5,1.3,0.8c0.4,0.3,0.7,0.6,1.1,1c0.4,0.4,0.7,0.9,1,1.5
		c0,0.6,0.1,1.3,0.4,2.2c0.3,0.9,0.1,1.7-0.4,2.2c0.5,0,0.6,0.4,0.4,1.1c-0.1,0.4-0.2,0.7-0.4,1.1c0,2.2-0.3,5.1-0.8,8.5
		c-0.6,3.4-1.4,6.5-2.5,9.3h-1.1l1.1,1.1c-0.8,0.3-1.3,0.6-1.3,1c0,0.4,0,0.8,0.1,1.3c0.1,0.4,0.2,0.8,0.2,1.2c0,0.4-0.4,0.7-1.3,1
		c-0.6,3.3-1.1,6.5-1.7,9.3c-0.6,2.9-1.1,5.7-1.7,8.5c-0.6,0.8-1,1.7-1.2,2.6c-0.2,0.9-0.4,1.9-0.6,2.8c-0.2,0.9-0.5,1.8-0.8,2.6
		c-0.4,0.8-1,1.5-1.8,2v1.1h-1.1l1.1,1.1c0.3,0.3,0.3,0.6,0.1,0.8c-0.2,0.3-0.5,0.6-0.8,0.8c-0.4,0.3-0.7,0.6-1,0.8
		c-0.3,0.3-0.5,0.6-0.5,0.8l-2.2-2.2h-1.1c0.6-1.1,0.8-1.9,0.7-2.5c-0.1-0.6,0.4-0.8,1.5-0.8c-0.6-0.3-0.9-0.7-0.9-1.3
		c0-0.6,0-1.3,0.2-2c0.2-0.7,0.5-1.4,0.8-2c0.4-0.6,0.7-1.1,1-1.4c0-1.7,0.1-3.1,0.3-4.3c0.2-1.2,0.8-2.4,2-3.5l-1.1-1.1
		c0.6-0.3,0.9-0.6,1-1c0.1-0.4,0.1-0.8,0.1-1.2c0-0.4,0-0.8,0.1-1.3c0.1-0.4,0.4-0.8,1-1c-0.8,0-1.3-0.1-1.4-0.3
		c-0.1-0.2,0-0.6,0.1-1c0.2-0.4,0.4-0.9,0.8-1.5c0.3-0.6,0.5-1.1,0.5-1.7c0.3,0,0.4,0,0.3-0.1c0-0.1-0.1-0.2-0.2-0.3
		c-0.1-0.1-0.1-0.1,0-0.1c0.1,0,0.4,0.2,1,0.5c-0.3-0.6-0.4-1.1-0.3-1.7c0-0.6,0.1-1.1,0.3-1.7c0.1-0.6,0.3-1.1,0.3-1.7
		c0.1-0.6,0-1.1-0.3-1.7l1.1-2.2c-0.6-0.6-0.5-1.2,0.1-1.8c0.6-0.6,1-1.5,1-2.6c0-2.8,0.3-5.4,1-7.8c0.6-2.4,0.7-5,0.1-7.8h1.1
		l-2.2-4.5c-4.5,0-8.7,1.3-12.7,3.9c-4,2.6-6.8,6.1-8.5,10.6c0.3,0.6,0.3,1,0.1,1.3c-0.2,0.3-0.4,0.6-0.6,0.9
		c-0.2,0.3-0.3,0.6-0.3,0.9c0,0.3,0.2,0.8,0.8,1.3c-1.1,0.6-1.5,1.1-1.3,1.7c0.3,0.6,0.7,1.1,1.3,1.7l2.2,10
		c-0.8-0.3-1.5-0.7-1.9-1.2c-0.5-0.5-0.9-1.1-1.3-1.7c-0.4-0.6-0.7-1.3-1-1.9c-0.3-0.6-0.8-1.3-1.3-1.8V38c0-0.3-0.1-0.6-0.3-0.8
		c-0.2-0.3-0.4-0.6-0.6-0.8c-0.1-0.3-0.2-0.6-0.1-0.8C103.8,35.2,104.1,34.9,104.7,34.6z M118,105.9v-2.2h-1.1
		c0.3-0.3,0.5-0.8,0.7-1.5c0.2-0.7,0.4-1.4,0.6-2.1c0.2-0.7,0.4-1.3,0.8-1.7c0.3-0.5,0.8-0.6,1.3-0.3c0.8-0.3,1.6-0.3,2.2-0.1
		c0.6,0.2,1.1,0.5,1.6,0.8c0.5,0.4,0.9,0.7,1.4,1c0.5,0.3,1,0.5,1.5,0.5l-3.3,11.1c-0.6,0-1.1,0.1-1.7,0.4c-0.6,0.3-1.1,0.1-1.7-0.4
		v-1.1c-0.3,0.6-0.5,0.9-0.7,1c-0.2,0.1-0.3,0.1-0.5-0.1c-0.1-0.1-0.3-0.3-0.4-0.6c-0.1-0.2-0.3-0.3-0.6-0.3c0-0.6-0.3-1.3-1-2.2
		c-0.7-0.9-0.7-1.7-0.1-2.2H118z"/>
</g>
</svg>
